<?xml version="1.0" encoding="UTF-8"?>
<svg width="24" height="24" viewBox="0 0 24 24" xmlns="http://www.w3.org/2000/svg">
  <g fill="none">
    <path d="M5.25,5 L18.75,5 C19.9926407,5 21,6.00735931 21,7.25 L21,17.75 C21,18.9926407 19.9926407,20 18.75,20 L5.25,20 C4.00735931,20 3,18.9926407 3,17.75 L3,7.25 C3,6.00735931 4.00735931,5 5.25,5 Z" fill="#F5F5F5"/>
    <path d="M21,7.5 L21,17.75 C21,18.9926407 19.9926407,20 18.75,20 L5.25,20 C4.00735931,20 3,18.9926407 3,17.75 L3,7.5 L12,13.5 L21,7.5 Z" fill="#EAEAEA"/>
    <path d="M21,7.25 L21,7.5 L12,13.5 L3,7.5 L3,7.25 C3,6.00735931 4.00735931,5 5.25,5 L18.75,5 C19.9926407,5 21,6.00735931 21,7.25 Z" fill="#F43F5E"/>
    <path d="M5.25,20 L18.75,20 C19.9926407,20 21,18.9926407 21,17.75 L21,7.25 C21,6.00735931 19.9926407,5 18.75,5 L5.25,5 C4.00735931,5 3,6.00735931 3,7.25 L3,17.75 C3,18.9926407 4.00735931,20 5.25,20 Z" stroke="#C1C1C1" stroke-width="0.5"/>
  </g>
</svg>